Coordinates
version=1
nRows=32
nColumns=22
inDegrees=yes

Units are S.I. units (second, meters, Newtons, ...)
If the header above contains a line with 'inDegrees', this indicates whether rotational values are in degrees (yes) or radians (no).

endheader
time	pelvis_tilt	pelvis_list	pelvis_rotation	pelvis_tx	pelvis_ty	pelvis_tz	hip_flexion_r	hip_adduction_r	hip_rotation_r	knee_angle_r	ankle_angle_r	subtalar_angle_r	hip_flexion_l	hip_adduction_l	hip_rotation_l	knee_angle_l	ankle_angle_l	subtalar_angle_l	lumbar_extension	lumbar_bending	lumbar_rotation
      1.32000000	      0.07604448	      1.86316128	      9.19361822	     -1.49463689	      1.07712400	     -0.30193229	      2.23380209	     -1.04392387	    -10.09827530	    -17.59622117	     15.29707336	     -6.25056723	     -0.78395410	      1.90436244	      5.69722503	    -11.63615353	     13.23882912	      0.59399468	     -5.46374913	     -2.66449037	     -6.82086979
      1.33000000	      0.04534286	      1.83268271	      8.92324652	     -1.49352761	      1.07691278	     -0.30030861	      2.26287768	     -0.93002305	     -9.86209570	    -17.62348991	     15.36606107	     -6.25584892	     -0.77662191	      1.79884878	      5.42560216	    -11.70308854	     13.34681997	      0.67618222	     -5.47911677	     -2.68448758	     -6.92071824
      1.34000000	      0.00620701	      1.78977144	      8.64595965	     -1.49240708	      1.07669228	     -0.29860518	      2.28805171	     -0.79600473	     -9.60281350	    -17.62389799	     15.40707546	     -6.25836132	     -0.73489276	      1.68137524	      5.15354086	    -11.81725967	     13.45596024	      0.77194592	     -5.49416542	     -2.69204188	     -7.00715097
      1.35000000	     -0.03806361	      1.73141640	      8.36197536	     -1.49127529	      1.07645726	     -0.29683913	      2.30848889	     -0.64110837	     -9.33892651	    -17.60188087	     15.43973647	     -6.26119551	     -0.65986756	      1.54847862	      4.87882120	    -11.98180248	     13.58468532	      0.86756396	     -5.51356337	     -2.67963362	     -7.07845384
      1.36000000	     -0.08640905	      1.65791815	      8.07221758	     -1.49014058	      1.07620731	     -0.29500902	      2.32400845	     -0.46493424	     -9.06395787	    -17.55989472	     15.46369812	     -6.26649853	     -0.55069567	      1.39998635	      4.60027444	    -12.20045308	     13.72971669	      0.95885625	     -5.54002083	     -2.64809396	     -7.13160982
      1.37000000	     -0.13902371	      1.56983259	      7.77621797	     -1.48900248	      1.07593849	     -0.29311576	      2.33360665	     -0.26797160	     -8.77789110	    -17.49568919	     15.48021335	     -6.27633660	     -0.40474964	      1.23632070	      4.31794209	    -12.47877245	     13.89083647	      1.04553439	     -5.57292627	     -2.59956911	     -7.15794636
      1.38000000	     -0.19904849	      1.46760030	      7.47203117	     -1.48785920	      1.07564370	     -0.29115656	      2.34210197	     -0.05171658	     -8.47857595	    -17.41205767	     15.48844037	     -6.29280788	     -0.22246955	      1.05679921	      4.02600577	    -12.80960184	     14.06892676	      1.13134874	     -5.60741510	     -2.53430625	     -7.16329129
      1.39000000	     -0.26495303	      1.35117981	      7.16134587	     -1.48672472	      1.07532115	     -0.28913346	      2.35258590	      0.18332119	     -8.16549468	    -17.31758385	     15.48780564	     -6.31641139	     -0.00306480	      0.86091863	      3.72912084	    -13.19707580	     14.26234997	      1.21638986	     -5.64727277	     -2.45231725	     -7.15139402
      1.40000000	     -0.33564611	      1.22008234	      6.84526998	     -1.48561223	      1.07497240	     -0.28704757	      2.36517864	      0.43747655	     -7.84145870	    -17.21363016	     15.47897101	     -6.34639022	      0.25461943	      0.64792031	      3.43111675	    -13.64463075	     14.46976525	      1.30090148	     -5.69535018	     -2.35234358	     -7.12144666
      1.41000000	     -0.40669455	      1.07548070	      6.53049810	     -1.48450842	      1.07459983	     -0.28490824	      2.37379294	      0.70947050	     -7.51431642	    -17.10058192	     15.46777267	     -6.37972168	      0.54586589	      0.41715929	      3.13608578	    -14.15456421	     14.68709568	      1.38139254	     -5.75376347	     -2.23652885	     -7.08351381
      1.42000000	     -0.53691519	      0.93077984	      6.20276715	     -1.48346789	      1.07412590	     -0.28269183	      2.45621302	      0.97917666	     -7.14596285	    -17.00453649	     15.44659685	     -6.45311961	      0.93947488	      0.18924457	      2.83595840	    -14.73786937	     14.90055487	      1.57475280	     -5.76061341	     -2.12864679	     -7.02882343
      1.43000000	     -0.61568145	      0.75699151	      5.89192367	     -1.48240612	      1.07369711	     -0.28045162	      2.47166770	      1.28671182	     -6.81367630	    -16.88784283	     15.42466072	     -6.49074863	      1.31017509	     -0.07915899	      2.56615930	    -15.38234306	     15.13177846	      1.67403692	     -5.83316623	     -1.98001399	     -6.97465190
      1.44000000	     -0.65314009	      0.56351498	      5.59588597	     -1.48134582	      1.07330670	     -0.27820024	      2.43347840	      1.61728697	     -6.52340210	    -16.75668364	     15.41683983	     -6.50281355	      1.67032376	     -0.37381591	      2.33390038	    -16.09097084	     15.37211033	      1.70916249	     -5.96485503	     -1.80021215	     -6.91326884
      1.45000000	     -0.72065797	      0.36507470	      5.29016765	     -1.48028795	      1.07285897	     -0.27588239	      2.42824266	      1.95380375	     -6.19701575	    -16.63440309	     15.40194747	     -6.51516199	      2.10350928	     -0.67606399	      2.09922943	    -16.88489730	     15.59178022	      1.80061897	     -6.06557237	     -1.62212240	     -6.83981670
      1.46000000	     -0.82733083	      0.17028274	      4.97743424	     -1.47929681	      1.07235031	     -0.27352744	      2.48071645	      2.28249318	     -5.84143758	    -16.54785578	     15.36340091	     -6.51784505	      2.62733024	     -0.97059904	      1.89766263	    -17.77399787	     15.80193988	      1.98083038	     -6.13845100	     -1.45070633	     -6.76909080
      1.47000000	     -0.94019667	     -0.01525505	      4.68998393	     -1.47823148	      1.07182533	     -0.27120174	      2.51123197	      2.59555409	     -5.55446992	    -16.42747015	     15.39367295	     -6.48486636	      3.20611933	     -1.25751263	      1.71741557	    -18.76456664	     15.96903306	      2.20911421	     -6.19872886	     -1.29011270	     -6.69093388
      1.48000000	     -1.00870432	     -0.21239181	      4.41019199	     -1.47715171	      1.07137116	     -0.26888317	      2.48692070	      2.92221360	     -5.28126285	    -16.30344974	     15.41155841	     -6.40308286	      3.78516363	     -1.55687728	      1.59323817	    -19.85020542	     16.11386507	      2.38712208	     -6.31799878	     -1.10854984	     -6.60725732
      1.49000000	     -1.07852213	     -0.40355219	      4.14872162	     -1.47604475	      1.07092729	     -0.26660499	      2.45596381	      3.23740105	     -5.03498866	    -16.17929533	     15.44797540	     -6.27033628	      4.42555297	     -1.84448582	      1.52079994	    -21.05362950	     16.20627985	      2.58779548	     -6.43763708	     -0.92971458	     -6.52394585
      1.50000000	     -1.09717617	     -0.60495469	      3.90435741	     -1.47490935	      1.07057883	     -0.26437585	      2.35923281	      3.56317703	     -4.81661094	    -16.04287795	     15.48267528	     -6.12250104	      5.07108568	     -2.13638397	      1.52199107	    -22.37070714	     16.24549781	      2.73198917	     -6.62248766	     -0.72966736	     -6.43161206
      1.51000000	     -1.21238748	     -0.77473642	      3.68819333	     -1.47377644	      1.07011683	     -0.26223197	      2.37023168	      3.83861427	     -4.64834081	    -15.92894025	     15.59090674	     -5.83649936	      5.90679168	     -2.37742246	      1.57485125	    -23.84447501	     16.18860390	      3.04941727	     -6.69702313	     -0.56989286	     -6.34887064
      1.52000000	     -1.27544705	     -0.94389035	      3.49218838	     -1.47258952	      1.06976670	     -0.26017074	      2.30941491	      4.11359708	     -4.50377343	    -15.79311697	     15.68676422	     -5.54242809	      6.74643204	     -2.60466669	      1.70189951	    -25.42424381	     16.05990457	      3.31415706	     -6.83517053	     -0.40058452	     -6.25724473
      1.53000000	     -1.32680265	     -1.09875472	      3.31767850	     -1.47134708	      1.06947409	     -0.25820854	      2.22090538	      4.36992574	     -4.38262335	    -15.63815956	     15.78420909	     -5.23302465	      7.63570338	     -2.80031104	      1.88018061	    -27.10756812	     15.86051832	      3.57873047	     -6.98882561	     -0.24070269	     -6.16571803
      1.54000000	     -1.37740028	     -1.23322764	      3.15698382	     -1.47005611	      1.06921565	     -0.25635886	      2.13381664	      4.59816910	     -4.28276008	    -15.49916529	     15.89837273	     -4.89908190	      8.57745670	     -2.95021834	      2.11966859	    -28.87169325	     15.57372462	      3.88371666	     -7.14434503	     -0.09746830	     -6.05459454
      1.55000000	     -1.42088307	     -1.34020877	      3.00431206	     -1.46869660	      1.06900597	     -0.25460862	      2.02917526	      4.79292035	     -4.19524979	    -15.35236443	     16.01120182	     -4.57083847	      9.54767965	     -3.05124265	      2.38597746	    -30.67538262	     15.22968423	      4.20561364	     -7.31035209	      0.01881532	     -5.92525924
      1.56000000	     -1.45550716	     -1.42376939	      2.85572759	     -1.46723756	      1.06884351	     -0.25296679	      1.90161595	      4.95886425	     -4.11025035	    -15.19395942	     16.11224471	     -4.26362557	     10.53025835	     -3.11032231	      2.65444791	    -32.48257527	     14.85593115	      4.52492989	     -7.48310471	      0.11407321	     -5.77939455
      1.57000000	     -1.48505534	     -1.47193002	      2.70290582	     -1.46567513	      1.06872589	     -0.25141934	      1.75970778	      5.08188990	     -4.02376644	    -15.03390534	     16.20402807	     -3.97505580	     11.51013979	     -3.11800043	      2.90648398	    -34.24643454	     14.46988349	      4.83188885	     -7.65915623	      0.17169406	     -5.60917816
      1.58000000	     -1.51857808	     -1.48479954	      2.54298335	     -1.46401464	      1.06863611	     -0.24997244	      1.61176644	      5.16046495	     -3.93524459	    -14.86822261	     16.30253042	     -3.69293841	     12.48823081	     -3.07934224	      3.11722435	    -35.93231463	     14.10602360	      5.11078489	     -7.83057099	      0.19381149	     -5.42030755
      1.59000000	     -1.55007913	     -1.46450884	      2.37353266	     -1.46221915	      1.06858534	     -0.24861173	      1.44737587	      5.19728543	     -3.83958931	    -14.69398093	     16.39649958	     -3.41801362	     13.44273939	     -3.00492634	      3.26763595	    -37.49804975	     13.79417470	      5.32261576	     -7.99619013	      0.18086331	     -5.21687231
      1.60000000	     -1.57570691	     -1.41141089	      2.19000163	     -1.46027926	      1.06859069	     -0.24732209	      1.25512497	      5.19267491	     -3.74126537	    -14.49535139	     16.47011800	     -3.15313640	     14.35976240	     -2.90478765	      3.33353927	    -38.90829206	     13.52821408	      5.44584971	     -8.16145904	      0.13140377	     -4.98982032
      1.61000000	     -1.61545892	     -1.32748752	      1.99953832	     -1.45821342	      1.06859445	     -0.24611586	      1.07010758	      5.14630954	     -3.64348633	    -14.30001844	     16.59002183	     -2.85225345	     15.26255013	     -2.78196011	      3.31910900	    -40.15122965	     13.35891216	      5.49800527	     -8.30469313	      0.05036644	     -4.76583252
      1.62000000	     -1.65152131	     -1.22551562	      1.80400457	     -1.45599321	      1.06863242	     -0.24496825	      0.85702063	      5.07480940	     -3.54688072	    -14.07573393	     16.71007502	     -2.54105018	     16.12637105	     -2.66203203	      3.20889792	    -41.20430256	     13.25618485	      5.46578496	     -8.44292636	     -0.05024168	     -4.54285936
      1.63000000	     -1.69296524	     -1.11382021	      1.60459695	     -1.45361864	      1.06868118	     -0.24386174	      0.62812601	      4.98796193	     -3.45379452	    -13.82647710	     16.82975838	     -2.21104941	     16.96165157	     -2.56101070	      2.99783544	    -42.06209154	     13.20533465	      5.36123651	     -8.56487577	     -0.16292912	     -4.32584059
